<?xml version="1.0" encoding="utf-8"?>
<!-- Generator: Adobe Illustrator 16.0.3, SVG Export Plug-In . SVG Version: 6.00 Build 0)  -->
<!DOCTYPE svg PUBLIC "-//W3C//DTD SVG 1.1//EN" "http://www.w3.org/Graphics/SVG/1.1/DTD/svg11.dtd">
<svg version="1.1" xmlns="http://www.w3.org/2000/svg" xmlns:xlink="http://www.w3.org/1999/xlink" x="0px" y="0px" width="300px"
	 height="300px" viewBox="0 0 300 300" enable-background="new 0 0 300 300" xml:space="preserve">
<g id="Hund_1_" display="none">
</g>
<g id="Katze_1_" display="none">
</g>
<g id="Hund_Backup" display="none">
	<path display="inline" fill="#CA9E67" d="M251.007,59c-43.5-36-56.125-18.5-58-19c-4.963-0.124-11.281-7.885-38.007-7.999
		c-26.727,0.113-33.044,7.875-38.007,7.999c-1.875,0.5-14.5-17-58,19c-48.5,38-38.139,53.65-31.5,70
		c3.789,9.332,14.48,22.058,15,28.5c2.5,31,13.91,15.438,16.5,12.75c6.718-6.849,17.75-53.625,21.75-64
		c6.838-21.398,14.147-34.001,16-32c0.51,0.586-14.375,28-12.125,54.25s-3.378,45.26-5.375,53.25c-5.75,44.25,32.333,40.5,38.125,42
		c5.958,13.333,25.156,18.413,37.632,18.413s31.674-5.079,37.632-18.413c5.792-1.5,43.875,2.25,38.125-42
		c-1.997-7.99-7.625-27-5.375-53.25s-12.635-53.664-12.125-54.25c1.853-2.001,9.162,10.602,16,32c4,10.375,15.032,57.151,21.75,64
		c2.591,2.688,14,18.25,16.5-12.75c0.52-6.442,11.211-19.168,15-28.5C289.146,112.65,299.508,97,251.007,59z M116,127.75
		c-5.385,0-9.75-4.365-9.75-9.75s4.365-9.75,9.75-9.75s9.75,4.365,9.75,9.75S121.385,127.75,116,127.75z M181,221
		c-5.167,0.167-10.75-2.833-15-5.5c-2.167-1.083-11-9.5-11-9.5s-8.834,8.417-11,9.5c-4.25,2.667-9.834,5.667-15,5.5
		c-5.167-0.167-13.083-1.833-1.018-6.655c16.143-6.595,18.788-13.22,20.518-16.845c1.901-3.982,1-14,1-14s-19-5.5-17.5-19.5
		c1.375-12,23-11.5,23-11.5s21.625-0.5,23,11.5c1.5,14-17.5,19.5-17.5,19.5s-0.901,10.018,1,14
		c1.731,3.625,4.375,10.25,20.518,16.845C194.083,219.167,186.167,220.833,181,221z M194,127.75c-5.385,0-9.75-4.365-9.75-9.75
		s4.365-9.75,9.75-9.75s9.75,4.365,9.75,9.75S199.385,127.75,194,127.75z"/>
</g>
<g id="Hund" display="none">
	<path display="inline" fill="#D8B3A0" d="M246.007,71.918c-43.5-36-56.125-18.5-58-19c-4.963-0.124-11.281-7.885-38.007-7.999
		c-26.727,0.113-33.044,7.875-38.007,7.999c-1.875,0.5-14.5-17-58,19c-48.5,38-38.139,53.65-31.5,70
		c3.789,9.332,14.48,22.058,15,28.5c2.5,31,13.91,15.438,16.5,12.75c6.718-6.849,17.75-53.625,21.75-64
		c6.838-21.398,14.147-34.001,16-32c0.51,0.586-14.375,28-12.125,54.25s-3.378,45.26-5.375,53.25c-5.75,44.25,32.333,40.5,38.125,42
		c5.958,13.333,25.156,18.413,37.632,18.413s31.674-5.079,37.632-18.413c5.792-1.5,43.875,2.25,38.125-42
		c-1.997-7.99-7.625-27-5.375-53.25s-12.635-53.664-12.125-54.25c1.853-2.001,9.162,10.602,16,32c4,10.375,15.032,57.151,21.75,64
		c2.591,2.688,14,18.25,16.5-12.75c0.52-6.442,11.211-19.168,15-28.5C284.146,125.568,294.508,109.918,246.007,71.918z M111,140.668
		c-5.385,0-9.75-4.365-9.75-9.75s4.365-9.75,9.75-9.75s9.75,4.365,9.75,9.75S116.385,140.668,111,140.668z M176,233.918
		c-5.167,0.167-10.75-2.833-15-5.5c-2.167-1.083-11-9.5-11-9.5s-8.834,8.417-11,9.5c-4.25,2.667-9.834,5.667-15,5.5
		c-5.167-0.167-13.083-1.833-1.018-6.655c16.143-6.595,18.788-13.22,20.518-16.845c1.901-3.982,1-14,1-14s-19-5.5-17.5-19.5
		c1.375-12,23-11.5,23-11.5s21.625-0.5,23,11.5c1.5,14-17.5,19.5-17.5,19.5s-0.901,10.018,1,14
		c1.731,3.625,4.375,10.25,20.518,16.845C189.083,232.084,181.167,233.751,176,233.918z M189,140.668c-5.385,0-9.75-4.365-9.75-9.75
		s4.365-9.75,9.75-9.75s9.75,4.365,9.75,9.75S194.385,140.668,189,140.668z"/>
</g>
<g id="Katze">
	<path fill="#D8B3A0" d="M208.167,195.184c0,0,12.5-4.667,29.833-5.333s28.334,5,28.334-1s-21.667-5.667-21.667-5.667
		s7.333-21-2.667-51c3-16.667,15-68.667,1.667-84.333c-12.333-2-42.333,25-53.667,38.667c-15.333-10-40-9.333-40-9.333
		s-24.667-0.667-40,9.333C98.667,72.851,68.667,45.851,56.333,47.851C43,63.518,55,115.518,58,132.184c-10,30-2.667,51-2.667,51
		s-21.667-0.333-21.667,5.667s11.001,0.333,28.334,1s29.833,5.333,29.833,5.333s-60.167,5.333-58.167,12.333s13.001-1,29.334-3
		s29.333-1.333,29.333-1.333s-53,15-48,21.667S51,220.518,77,216.518c41,39,73,35.667,73,35.667s32,3.333,73-35.667
		c26,4,27.667,15,32.667,8.333s-48-21.667-48-21.667s13-0.667,29.333,1.333s27.334,10,29.334,3S208.167,195.184,208.167,195.184z
		 M91.809,143.184c12.524-10.667,35.524-5.667,36.524,16.667C111.667,170.184,95.333,160.518,91.809,143.184z M167,221.851
		c-11.34,0.725-17-7.333-17-7.333s-5.66,8.058-17,7.333c-23.333-4.333-11.667-15.333-6.667-11s22.292,1.313,19.479-12.5
		c-25.646-19,4.188-17.833,4.188-17.833s29.833-1.167,4.188,17.833c-2.813,13.813,14.479,16.833,19.479,12.5
		S190.333,217.517,167,221.851z M171.667,159.851c1-22.333,24-27.333,36.524-16.667
		C204.667,160.518,188.333,170.184,171.667,159.851z"/>
</g>
<g id="Circle" display="none">
	<g id="_x31__1_" display="inline">
		<g>
			<path fill="#D8B3A0" d="M255.586,180.953c-13.575,45.469-55.239,77.531-102.662,79.011
				c-45.352,1.415-87.923-26.735-104.95-68.681c-17.345-42.729-5.319-92.218,28.51-123.119
				c34.514-31.525,86.934-36.635,127.488-14.035c24.95,13.904,43.479,37.657,51.618,64.936c1.839,6.164,11.491,3.537,9.643-2.658
				c-13.325-44.658-51.804-78.476-98.053-85.144c-45.429-6.55-90.625,13.902-116.581,51.51
				c-25.977,37.637-26.945,88.479-4.216,127.794c22.728,39.313,67.255,62.205,112.334,59.108
				c49.624-3.409,92.357-38.656,106.51-86.064C267.078,177.416,257.426,174.789,255.586,180.953L255.586,180.953z"/>
		</g>
	</g>
	<circle id="backup_1_" fill="none" stroke="#B17F4A" stroke-width="6" stroke-miterlimit="10" cx="150" cy="150" r="115"/>
</g>
</svg>
