<?xml version="1.0" encoding="utf-8"?>
<!-- Generator: Adobe Illustrator 16.0.3, SVG Export Plug-In . SVG Version: 6.00 Build 0)  -->
<!DOCTYPE svg PUBLIC "-//W3C//DTD SVG 1.1//EN" "http://www.w3.org/Graphics/SVG/1.1/DTD/svg11.dtd">
<svg version="1.1" xmlns="http://www.w3.org/2000/svg" xmlns:xlink="http://www.w3.org/1999/xlink" x="0px" y="0px" width="300px"
	 height="300px" viewBox="0 0 300 300" enable-background="new 0 0 300 300" xml:space="preserve">
<g id="hund" display="none">
	<path display="inline" fill="#D8B3A0" d="M245.934,71.978c-43.466-35.973-56.082-18.486-57.956-18.986
		C183.019,52.869,176.706,45.113,150,45c-26.706,0.113-33.019,7.869-37.978,7.992c-1.874,0.5-14.489-16.987-57.956,18.986
		c-48.463,37.971-38.11,53.609-31.477,69.946c3.786,9.325,14.469,22.041,14.989,28.478c2.498,30.976,13.899,15.427,16.488,12.74
		c6.712-6.844,17.736-53.584,21.733-63.951c6.833-21.381,14.136-33.975,15.987-31.975c0.51,0.585-14.364,27.979-12.115,54.208
		c2.248,26.23-3.375,45.225-5.371,53.209c-5.746,44.216,32.309,40.469,38.096,41.968C118.351,249.925,137.533,255,150,255
		s31.649-5.075,37.604-18.398c5.787-1.499,43.841,2.248,38.096-41.968c-1.996-7.984-7.619-26.979-5.371-53.209
		c2.249-26.229-12.625-53.623-12.115-54.208c1.852-2,9.154,10.594,15.987,31.975c3.997,10.367,15.021,57.107,21.733,63.951
		c2.589,2.687,13.99,18.236,16.488-12.74c0.519-6.437,11.203-19.153,14.989-28.478C284.044,125.587,294.397,109.949,245.934,71.978z
		 M111.03,140.675c-5.38,0-9.742-4.362-9.742-9.743s4.362-9.743,9.742-9.743c5.381,0,9.743,4.362,9.743,9.743
		S116.411,140.675,111.03,140.675z M175.98,233.854c-5.163,0.167-10.742-2.831-14.988-5.496c-2.165-1.083-10.992-9.493-10.992-9.493
		s-8.827,8.41-10.992,9.493c-4.247,2.665-9.826,5.662-14.988,5.496c-5.163-0.166-13.074-1.832-1.018-6.649
		c16.131-6.59,18.773-13.21,20.502-16.833c1.9-3.979,1-13.989,1-13.989s-18.986-5.496-17.487-19.485
		C128.392,164.907,150,165.406,150,165.406s21.608-0.5,22.982,11.491c1.499,13.989-17.487,19.485-17.487,19.485s-0.9,10.01,1,13.989
		c1.729,3.623,4.372,10.242,20.502,16.833C189.054,232.021,181.143,233.688,175.98,233.854z M188.97,140.675
		c-5.381,0-9.743-4.362-9.743-9.743s4.362-9.743,9.743-9.743c5.38,0,9.742,4.362,9.742,9.743S194.351,140.675,188.97,140.675z"/>
</g>
<g id="herz" display="none">
	<g id="BGs">
	</g>
	<g id="Facebook" display="inline">
	</g>
	<g id="WhatsApp_1_" display="inline">
	</g>
	<g id="Instagram" display="inline">
	</g>
	<g id="Angebot-Icons_1_" display="inline">
		<path id="Herz_1_" fill="#D8B3A0" d="M251.314,62.953c28.01,27.99,28.01,73.333,0.007,101.367c0,0-87.697,90.68-100.729,90.68
			c-13.029,0-101.931-90.677-101.931-90.677c-27.98-28.037-27.98-73.379,0-101.371c27.994-27.996,73.95-21.314,101.931,6.68
			C178.621,41.649,223.354,34.978,251.314,62.953z"/>
		<path id="Pfote_1_" display="none" fill="#D8B3A0" d="M73.733,234.192c-14.448-46.842,23.126-51.23,30.838-71.335
			c4.844-12.701,24.208-39.438,45.384-39.438c21.174,0,40.541,26.737,45.478,39.438c7.617,20.105,45.248,24.494,30.639,71.335
			c-17.607,39.19-53.231,9.811-76.117,9.811C127.17,244.001,91.404,273.382,73.733,234.192z M120.008,46.044
			C107.267,50.18,94.531,66.206,92.205,83.55c-2.331,17.27,10.021,36.476,28.307,40.583c18.335,4.098,31.102-15.213,27.809-40.583
			C144.958,58.074,132.708,42.006,120.008,46.044z M179.791,46.044c-12.594-4.039-24.845,12.031-28.166,37.506
			c-3.294,25.37,9.435,44.68,27.767,40.583c18.293-4.106,30.54-23.311,28.309-40.583C205.282,66.205,192.641,50.179,179.791,46.044z
			 M213.087,108.722c-9.681,3.181-19.349,15.26-21.129,28.372c-1.777,13.092,7.547,27.635,21.483,30.809
			c13.965,3.173,23.625-11.482,21.124-30.809C232.064,117.854,222.726,105.671,213.087,108.722z M86.824,108.722
			c-9.549-3.051-18.905,9.131-21.389,28.374c-2.499,19.324,7.138,33.982,21.031,30.809c13.852-3.173,23.162-17.718,21.483-30.809
			C106.17,123.982,96.501,111.879,86.824,108.722z"/>
		<path id="Anker_1_" display="none" fill="#D8B3A0" d="M150.043,254.671c-4.099,0-12.31-12.361-12.31-12.361
			s-18.114-1.591-29.942-10.002c-11.822-8.861-31.608-34.435-31.608-34.435s-8.575,14.046-13.498,9.879
			c-2.866-1.805,1.591-40.322,5.756-42.833c4.403-2.851,39.029,15.751,38.938,22.206c-0.318,5.959-16.039,4.163-16.039,4.163
			s3.66,5.7,16.494,14.156c13.07,8.869,30.772,8.197,30.772,8.197l-0.083-100.966h-9.878c0,0-16.267,8.708-16.267-7.589
			c0-16.318,16.267-7.32,16.267-7.32h9.921v-14.44c0,0-9.413-5.195-9.413-17.513c0-12.32,10.159-20.483,20.881-20.483h0.008
			c10.734,0,20.645,8.163,20.645,20.483c0,12.318-9.167,17.513-9.167,17.513v14.439h9.917c0,0,16.267-8.999,16.267,7.32
			c0,16.298-16.267,7.589-16.267,7.589h-9.873l-0.088,100.966c0,0,17.94,0.671,30.531-8.197
			c13.081-8.457,16.978-14.156,16.978-14.156s-16.187,1.796-16.279-4.163c-0.087-6.454,34.527-25.058,38.699-22.207
			c4.651,2.511,8.854,41.029,5.75,42.833c-4.912,4.168-13.256-9.878-13.256-9.878s-19.783,25.574-31.363,34.435
			c-12.067,8.411-30.188,10.002-30.188,10.002S154.137,254.671,150.043,254.671z M150.043,60.044c-3.246,0-5.769,2.517-5.769,5.767
			c0,3.251,2.523,5.766,5.769,5.766c3.248,0,5.762-2.514,5.762-5.766C155.805,62.562,153.291,60.044,150.043,60.044z"/>
	</g>
	<g id="FavIcon" display="inline">
	</g>
	<g id="Homepage" display="inline">
	</g>
</g>
<g id="anker" display="none">
	<g id="BGs_1_">
	</g>
	<g id="Facebook_1_" display="inline">
	</g>
	<g id="WhatsApp_2_" display="inline">
	</g>
	<g id="Instagram_1_" display="inline">
	</g>
	<g id="Angebot-Icons_2_" display="inline">
		<path id="Herz_2_" display="none" fill="#F2DDD0" d="M251.315,62.953c28.009,27.99,28.009,73.333,0.007,101.367
			c0,0-87.697,90.68-100.729,90.68c-13.029,0-101.931-90.676-101.931-90.676c-27.98-28.038-27.98-73.38,0-101.371
			c27.994-27.996,73.95-21.314,101.931,6.68C178.621,41.649,223.354,34.978,251.315,62.953z"/>
		<path id="Pfote_2_" display="none" fill="#F2DDD0" d="M73.733,234.193c-14.448-46.842,23.126-51.23,30.838-71.336
			c4.844-12.701,24.208-39.438,45.384-39.438c21.174,0,40.541,26.737,45.478,39.438c7.617,20.105,45.249,24.494,30.639,71.336
			c-17.607,39.189-53.231,9.81-76.117,9.81C127.17,244.002,91.404,273.383,73.733,234.193z M120.008,46.045
			C107.267,50.18,94.531,66.206,92.205,83.55c-2.331,17.271,10.021,36.476,28.307,40.584c18.335,4.097,31.102-15.214,27.809-40.584
			C144.958,58.074,132.708,42.007,120.008,46.045z M179.791,46.045c-12.594-4.039-24.845,12.031-28.166,37.505
			c-3.294,25.37,9.435,44.679,27.767,40.584c18.293-4.106,30.54-23.313,28.309-40.584C205.282,66.206,192.641,50.179,179.791,46.045
			z M213.087,108.722c-9.681,3.182-19.349,15.261-21.13,28.372c-1.777,13.092,7.547,27.635,21.483,30.809
			c13.966,3.173,23.626-11.482,21.124-30.809C232.064,117.855,222.726,105.672,213.087,108.722z M86.823,108.722
			c-9.549-3.05-18.905,9.131-21.388,28.375c-2.499,19.323,7.138,33.981,21.031,30.809c13.852-3.173,23.162-17.719,21.483-30.809
			C106.17,123.982,96.501,111.879,86.823,108.722z"/>
		<path id="Anker_2_" fill="#D8B3A0" d="M150.043,254.672c-4.099,0-12.31-12.361-12.31-12.361s-18.114-1.591-29.942-10.002
			c-11.822-8.861-31.608-34.436-31.608-34.436s-8.575,14.047-13.498,9.879c-2.866-1.805,1.591-40.32,5.756-42.833
			c4.403-2.852,39.029,15.751,38.938,22.206c-0.318,5.959-16.039,4.162-16.039,4.162s3.66,5.701,16.494,14.156
			c13.07,8.869,30.772,8.197,30.772,8.197l-0.083-100.967h-9.878c0,0-16.267,8.709-16.267-7.588c0-16.319,16.267-7.319,16.267-7.319
			h9.921V83.324c0,0-9.413-5.194-9.413-17.512c0-12.322,10.159-20.484,20.881-20.484h0.008c10.734,0,20.645,8.162,20.645,20.484
			c0,12.317-9.167,17.512-9.167,17.512v14.439h9.917c0,0,16.267-8.998,16.267,7.319c0,16.299-16.267,7.591-16.267,7.591h-9.873
			l-0.088,100.965c0,0,17.94,0.672,30.531-8.196c13.081-8.458,16.978-14.156,16.978-14.156s-16.187,1.796-16.278-4.163
			c-0.087-6.453,34.527-25.059,38.699-22.206c4.651,2.511,8.854,41.029,5.75,42.834c-4.912,4.167-13.256-9.879-13.256-9.879
			s-19.783,25.574-31.363,34.435c-12.067,8.412-30.188,10.004-30.188,10.004S154.137,254.672,150.043,254.672z M150.043,60.045
			c-3.246,0-5.769,2.518-5.769,5.768c0,3.251,2.523,5.766,5.769,5.766c3.248,0,5.762-2.515,5.762-5.766
			C155.805,62.563,153.291,60.045,150.043,60.045z"/>
	</g>
	<g id="FavIcon_1_" display="inline">
	</g>
	<g id="Homepage_1_" display="inline">
	</g>
</g>
<g id="katze">
	<path fill="#D8B3A0" d="M209.729,196.397c0,0,12.835-4.792,30.634-5.477s29.095,5.134,29.095-1.027s-22.249-5.819-22.249-5.819
		s7.53-21.563-2.739-52.369c3.081-17.114,15.403-70.51,1.712-86.597c-12.665-2.054-43.47,25.671-55.108,39.705
		C175.329,74.545,150,75.229,150,75.229s-25.329-0.685-41.074,9.584C97.289,70.779,66.483,43.055,53.818,45.108
		c-13.691,16.087-1.369,69.483,1.712,86.597c-10.269,30.806-2.739,52.369-2.739,52.369s-22.249-0.342-22.249,5.819
		s11.296,0.342,29.095,1.027s30.634,5.477,30.634,5.477s-61.782,5.477-59.729,12.665s13.35-1.027,30.122-3.081
		s30.121-1.369,30.121-1.369s-54.423,15.402-49.289,22.248c5.134,6.846,6.846-4.449,33.544-8.557
		C117.141,258.35,150,254.927,150,254.927s32.859,3.423,74.959-36.624c26.698,4.107,28.41,15.403,33.544,8.557
		c5.134-6.846-49.289-22.248-49.289-22.248s13.349-0.685,30.121,1.369s28.068,10.269,30.122,3.081S209.729,196.397,209.729,196.397z
		 M90.247,143.001c12.86-10.953,36.478-5.818,37.505,17.114C110.637,170.726,93.865,160.8,90.247,143.001z M167.457,223.779
		c-11.645,0.745-17.457-7.53-17.457-7.53s-5.812,8.274-17.457,7.53c-23.959-4.45-11.98-15.745-6.846-11.295
		c5.134,4.45,22.89,1.348,20.002-12.835c-26.334-19.51,4.3-18.312,4.3-18.312s30.634-1.198,4.3,18.312
		c-2.888,14.184,14.868,17.285,20.002,12.835C179.437,208.035,191.416,219.33,167.457,223.779z M172.249,160.115
		c1.027-22.933,24.645-28.067,37.505-17.114C206.135,160.8,189.363,170.726,172.249,160.115z"/>
</g>
<g id="circle" display="none">
	<g id="_x31__1_" display="inline">
		<g>
			<path fill="#D8B3A0" d="M245.786,178.146c-13.729,45.891-58.156,75.458-105.695,71.412
				c-45.299-3.856-81.907-40.156-89.181-84.392c-7.373-44.839,18.907-90.288,60.569-107.6
				c43.731-18.171,95.227-2.146,121.553,36.969c5.656,8.404,9.861,17.645,12.759,27.335c1.842,6.163,11.495,3.536,9.643-2.658
				C241.945,74.1,201.15,42.331,154.165,40.089c-45.003-2.147-87.711,25.351-105.431,66.517
				c-18.043,41.917-7.601,91.432,25.146,122.992c33.409,32.197,84.62,38.992,125.846,18.436
				c26.961-13.443,47.115-38.525,55.702-67.23C257.281,174.61,247.629,171.983,245.786,178.146L245.786,178.146z"/>
		</g>
	</g>
	<circle id="backup_1_" fill="none" stroke="#B17F4A" stroke-width="6" stroke-miterlimit="10" cx="150" cy="150" r="115"/>
</g>
<g id="pfote" display="none">
	<g id="Angebot-Icons" display="inline">
		<path id="Herz_6_" display="none" fill="#D8B3A0" d="M251.315,62.953c28.01,27.99,28.01,73.333,0.008,101.367
			c0,0-87.698,90.68-100.729,90.68c-13.03,0-101.932-90.677-101.932-90.677c-27.98-28.037-27.98-73.379,0-101.371
			c27.994-27.996,73.95-21.314,101.932,6.68C178.621,41.649,223.354,34.978,251.315,62.953z"/>
		<path id="Pfote_7_" fill="#D8B3A0" d="M73.733,234.192c-14.448-46.842,23.126-51.23,30.838-71.335
			c4.844-12.701,24.208-39.438,45.384-39.438c21.174,0,40.54,26.737,45.478,39.438c7.617,20.105,45.248,24.494,30.639,71.335
			c-17.607,39.19-53.231,9.811-76.117,9.811C127.17,244.001,91.404,273.381,73.733,234.192z M120.008,46.044
			C107.267,50.18,94.531,66.206,92.205,83.55c-2.332,17.27,10.021,36.476,28.306,40.583c18.335,4.098,31.102-15.213,27.809-40.583
			C144.958,58.074,132.708,42.006,120.008,46.044z M179.791,46.044c-12.594-4.039-24.845,12.031-28.165,37.506
			c-3.295,25.37,9.434,44.68,27.766,40.583c18.293-4.106,30.54-23.311,28.309-40.583C205.282,66.205,192.641,50.179,179.791,46.044z
			 M213.087,108.722c-9.681,3.181-19.349,15.26-21.13,28.372c-1.777,13.092,7.547,27.635,21.483,30.809
			c13.965,3.173,23.625-11.482,21.124-30.809C232.064,117.854,222.726,105.671,213.087,108.722z M86.824,108.722
			c-9.549-3.051-18.905,9.131-21.389,28.374c-2.499,19.324,7.138,33.982,21.032,30.809c13.851-3.173,23.162-17.718,21.482-30.809
			C106.17,123.982,96.501,111.879,86.824,108.722z"/>
		<path id="Anker_6_" display="none" fill="#D8B3A0" d="M150.043,254.671c-4.099,0-12.31-12.361-12.31-12.361
			s-18.114-1.59-29.942-10.002c-11.822-8.861-31.608-34.435-31.608-34.435s-8.575,14.046-13.498,9.879
			c-2.866-1.805,1.591-40.322,5.756-42.833c4.403-2.851,39.029,15.751,38.938,22.206c-0.318,5.959-16.039,4.163-16.039,4.163
			s3.66,5.7,16.494,14.156c13.07,8.869,30.772,8.197,30.772,8.197l-0.083-100.966h-9.878c0,0-16.267,8.708-16.267-7.589
			c0-16.318,16.267-7.32,16.267-7.32h9.921v-14.44c0,0-9.413-5.195-9.413-17.513c0-12.32,10.159-20.483,20.881-20.483h0.008
			c10.734,0,20.645,8.163,20.645,20.483c0,12.318-9.167,17.513-9.167,17.513v14.439h9.917c0,0,16.267-8.999,16.267,7.32
			c0,16.298-16.267,7.589-16.267,7.589h-9.873l-0.088,100.966c0,0,17.94,0.671,30.531-8.197
			c13.081-8.457,16.978-14.156,16.978-14.156s-16.187,1.796-16.278-4.163c-0.087-6.454,34.527-25.058,38.698-22.207
			c4.652,2.511,8.854,41.029,5.75,42.833c-4.911,4.168-13.256-9.878-13.256-9.878s-19.783,25.574-31.363,34.435
			c-12.067,8.411-30.188,10.002-30.188,10.002S154.137,254.671,150.043,254.671z M150.043,60.044c-3.246,0-5.769,2.517-5.769,5.767
			c0,3.251,2.523,5.766,5.769,5.766c3.248,0,5.762-2.514,5.762-5.766C155.805,62.562,153.291,60.044,150.043,60.044z"/>
	</g>
</g>
</svg>
