<?xml version="1.0" encoding="utf-8"?>
<!-- Generator: Adobe Illustrator 16.0.3, SVG Export Plug-In . SVG Version: 6.00 Build 0)  -->
<!DOCTYPE svg PUBLIC "-//W3C//DTD SVG 1.1//EN" "http://www.w3.org/Graphics/SVG/1.1/DTD/svg11.dtd">
<svg version="1.1" xmlns="http://www.w3.org/2000/svg" xmlns:xlink="http://www.w3.org/1999/xlink" x="0px" y="0px" width="360px"
	 height="309.011px" viewBox="0 0 360 309.011" enable-background="new 0 0 360 309.011" xml:space="preserve">
<g id="BGs" display="none">
	<rect id="Instagram_1_" display="inline" fill="#BD896A" width="360" height="360"/>
</g>
<g id="Facebook">
</g>
<g id="WhatsApp_1_">
</g>
<g id="Instagram">
	<path id="Herz_1_" fill="#F2DDD0" d="M329.08,26.417c41.216,41.187,41.216,107.909,0.01,149.159
		c0,0-129.045,133.435-148.22,133.435S30.879,175.581,30.879,175.581c-41.172-41.256-41.172-107.975,0-149.164
		C72.072-14.778,139.695-4.947,180.87,36.246C222.111-4.929,287.935-14.746,329.08,26.417z"/>
	<path id="Pfote_2_" fill="#BD896A" d="M105.313,228.248c-14.159-45.901,22.66-50.201,30.218-69.902
		c4.746-12.446,23.721-38.647,44.472-38.647c20.749,0,39.726,26.201,44.563,38.647c7.465,19.702,44.341,24.001,30.024,69.902
		c-17.252,38.4-52.16,9.61-74.587,9.61C157.676,237.858,122.629,266.648,105.313,228.248z M150.657,43.879
		c-12.486,4.052-24.965,19.758-27.245,36.753c-2.283,16.922,9.819,35.741,27.739,39.767c17.965,4.014,30.477-14.907,27.25-39.767
		C175.105,55.667,163.103,39.924,150.657,43.879z M209.24,43.879c-12.341-3.958-24.346,11.788-27.601,36.753
		c-3.229,24.86,9.245,43.781,27.208,39.767c17.925-4.025,29.926-22.843,27.74-39.767C234.218,63.637,221.83,47.932,209.24,43.879z
		 M241.866,105.298c-9.487,3.116-18.962,14.953-20.705,27.801c-1.742,12.831,7.396,27.081,21.051,30.189
		c13.685,3.109,23.149-11.252,20.7-30.189C260.461,114.249,251.312,102.31,241.866,105.298z M118.14,105.298
		c-9.358-2.989-18.526,8.948-20.958,27.804c-2.448,18.935,6.993,33.299,20.608,30.189c13.573-3.109,22.696-17.362,21.05-30.189
		C137.098,120.251,127.623,108.393,118.14,105.298z"/>
	<path id="Anker_1_" fill="#F2DDD0" d="M180.002,227.009c-1.757,0-5.275-5.297-5.275-5.297s-7.762-0.682-12.83-4.286
		c-5.064-3.797-13.543-14.755-13.543-14.755s-3.674,6.019-5.783,4.233c-1.229-0.773,0.682-17.277,2.466-18.354
		c1.887-1.222,16.723,6.749,16.685,9.515c-0.137,2.554-6.872,1.783-6.872,1.783s1.567,2.443,7.067,6.066
		c5.6,3.8,13.186,3.512,13.186,3.512l-0.035-43.262h-4.233c0,0-6.97,3.732-6.97-3.251c0-6.993,6.97-3.137,6.97-3.137h4.251v-6.186
		c0,0-4.033-2.227-4.033-7.505c0-5.28,4.353-8.777,8.947-8.777h0.004c4.599,0,8.846,3.497,8.846,8.777
		c0,5.278-3.928,7.505-3.928,7.505v6.186h4.248c0,0,6.971-3.856,6.971,3.137c0,6.983-6.971,3.251-6.971,3.251h-4.229l-0.039,43.262
		c0,0,7.687,0.288,13.082-3.512c5.604-3.623,7.274-6.066,7.274-6.066s-6.936,0.771-6.975-1.783
		c-0.037-2.766,14.794-10.736,16.581-9.515c1.993,1.076,3.794,17.58,2.464,18.354c-2.104,1.785-5.68-4.233-5.68-4.233
		s-8.476,10.958-13.438,14.755c-5.172,3.604-12.936,4.286-12.936,4.286S181.755,227.009,180.002,227.009z M180.002,143.615
		c-1.391,0-2.473,1.079-2.473,2.471c0,1.394,1.082,2.471,2.473,2.471s2.469-1.077,2.469-2.471
		C182.471,144.694,181.393,143.615,180.002,143.615z"/>
</g>
<g id="Homepage">
</g>
</svg>
